# xmcd
#
# Track frame offsets: 
#        150
#        24434
#        43498
#        75353
#        106085
#        131583
#        161595
#        190778
#        220951
#        254130
#        287200
#
# Disc length: 4181 seconds
#
# Revision: 0
# Processed by: cddbd v1.5.2PL0 Copyright (c) Steve Scherf et al.
# Submitted via: ExactAudioCopy v0.95b4
#
DISCID=9c10530b
DTITLE=Various Artist - House 20
DYEAR=1900
DGENRE=
TTITLE0=Vebgaboys - Boom, Boom, Boom
TTITLE1=Cartoons - Witchdoctor
TTITLE2=E.F.O. - Now ´99
TTITLE3=Finary Binary - 1999 (Kay Cee Mix)
TTITLE4=Humate - Love Stimulation
TTITLE5=Intervalic DJs - Mental Atmosphere
TTITLE6=Jay Dee - Plastic Dreams
TTITLE7=Jens - Loops and Things
TTITLE8=Sequential One - Angels
TTITLE9=THC Dukes - I need your love
TTITLE10=DJ Tomcraft vs Housepunk - Phunk da funk
EXTD=
EXTT0=
EXTT1=
EXTT2=
EXTT3=
EXTT4=
EXTT5=
EXTT6=
EXTT7=
EXTT8=
EXTT9=
EXTT10=
PLAYORDER=
